<?xml version="1.0" encoding="utf-8"?>
<!-- Generator: Adobe Illustrator 21.1.0, SVG Export Plug-In . SVG Version: 6.00 Build 0)  -->
<svg version="1.1" id="Ebene_1" xmlns="http://www.w3.org/2000/svg" xmlns:xlink="http://www.w3.org/1999/xlink" x="0px" y="0px"
	 viewBox="0 0 206.1 22.7" style="enable-background:new 0 0 206.1 22.7;" xml:space="preserve">
<style type="text/css">
	.st0{fill-rule:evenodd;clip-rule:evenodd;fill:#00458D;}
	.st1{fill-rule:evenodd;clip-rule:evenodd;fill:#E60044;}
</style>
<g>
	<path class="st0" d="M18.3,8.6l-3,14.1H5.4L8.8,6.5C10.1,1,16.1,0,17.9,0h28.9l-6.4,6.7H20.7C19.3,6.7,18.6,7.3,18.3,8.6"/>
	<path class="st1" d="M0,10.7h37.5l-10,10.2c-7.4-6.4-16.6-9.2-27-9.3L0,10.7z"/>
	<path class="st0" d="M28.4,22.7l20.1-20c2.1-2,6-2.7,7.6-2.7h14.3l-4.8,22.7H56L60,3L46.3,16.8h10.2l-4.2,5.9H28.4z"/>
	<polygon class="st0" points="69.4,22.7 74.1,0 84.2,0 80.7,16.6 100,16.6 95.7,22.7 	"/>
	<polygon class="st0" points="104.4,0 99.6,22.7 109.7,22.7 111.8,11.7 122.6,22.7 134.4,22.7 123.2,11.8 139.8,0 125.6,0 112,10.7 
		114.4,0 	"/>
	<path class="st0" d="M134.7,22.7h29.7l4.8-6.1h-23.5l0.5-2.4h18.5l1.1-5.5h-18.4c0.5-1.5,0.8-2.3,2-2.4h19.9l1.3-6.3h-23.8
		c-4,0-7.7,1.5-8.8,6.6L134.7,22.7z"/>
	<path class="st0" d="M169.4,22.7L174.1,0h23.7c4.6,0,9.3,2.4,8.2,7.5l-3.1,15.2h-10.1l3-13.9c0.3-0.9-0.3-2.3-1.6-2.3h-11.1
		l-3.4,16.3H169.4z"/>
</g>
</svg>
