<svg width="60" height="48" viewBox="0 0 60 48" fill="none" xmlns="http://www.w3.org/2000/svg">
<circle cx="24.5" cy="24" r="24" fill="#E5E7F0"/>
<rect x="11.5" width="48" height="48" rx="24" fill="#3A64F6"/>
<path d="M32.1172 26.7185C32.1172 28.2235 33.2722 29.4368 34.7072 29.4368H37.6355C38.8839 29.4368 39.8989 28.3751 39.8989 27.0685C39.8989 25.6451 39.2805 25.1435 38.3589 24.8168L33.6572 23.1835C32.7355 22.8568 32.1172 22.3551 32.1172 20.9318C32.1172 19.6251 33.1322 18.5635 34.3805 18.5635H37.3089C38.7439 18.5635 39.8989 19.7768 39.8989 21.2818" stroke="white" stroke-width="1.36" stroke-linecap="round" stroke-linejoin="round"/>
<path d="M36 17V31" stroke="white" stroke-width="1.36" stroke-linecap="round" stroke-linejoin="round"/>
<path d="M35.9987 35.6663C42.442 35.6663 47.6654 30.443 47.6654 23.9997C47.6654 17.5564 42.442 12.333 35.9987 12.333C29.5554 12.333 24.332 17.5564 24.332 23.9997C24.332 30.443 29.5554 35.6663 35.9987 35.6663Z" stroke="white" stroke-width="1.36" stroke-linecap="round" stroke-linejoin="round"/>
</svg>
