<svg width="14" height="14" viewBox="0 0 14 14" fill="none" xmlns="http://www.w3.org/2000/svg">
<path d="M3.15838 0.0382814C2.76463 0.164062 2.46931 0.473047 2.36814 0.861328C2.32986 1.00352 2.32439 1.62148 2.32439 6.33555V11.6457L2.22322 11.6621C1.77478 11.7305 1.44939 11.9574 1.28259 12.3156C1.17049 12.5562 1.14314 12.7723 1.15408 13.3465L1.16228 13.8414L1.25252 13.9207L1.34002 14H6.42049C11.1892 14 11.501 13.9973 11.5556 13.9508C11.6678 13.8633 11.676 13.8059 11.676 13.2262C11.676 12.7531 11.6678 12.6383 11.624 12.4988C11.4845 12.0531 11.1427 11.7523 10.6861 11.673L10.5002 11.643V10.4973V9.35156H10.6916C10.8638 9.35156 10.8912 9.35977 10.9705 9.43086L11.0607 9.51016L11.0744 9.97227C11.0881 10.3961 11.0935 10.4426 11.1592 10.582C11.3095 10.8965 11.5939 11.0824 11.933 11.0852C12.0396 11.0852 12.1791 11.0688 12.242 11.0523C12.4689 10.9867 12.7342 10.7215 12.8025 10.4918C12.8299 10.4016 12.8381 9.50195 12.8381 6.15234C12.8381 2.4418 12.8326 1.91953 12.797 1.87031C12.7752 1.84023 12.4717 1.53398 12.1217 1.19492C11.501 0.585156 11.4873 0.574219 11.3752 0.574219C11.2822 0.574219 11.2439 0.590625 11.1674 0.667188C11.0908 0.743751 11.0744 0.779297 11.0744 0.877734C11.0744 0.992579 11.0826 1.00078 11.5939 1.51758L12.1135 2.03711L11.6322 2.51562C11.3697 2.77812 11.1345 3.02695 11.1127 3.06797C11.0553 3.17734 11.058 4.16445 11.1181 4.38867C11.233 4.83984 11.6459 5.20352 12.0861 5.2418L12.2502 5.2582V7.7082C12.2502 9.30234 12.2392 10.1938 12.2228 10.2594C12.1463 10.5273 11.799 10.5492 11.7006 10.2895C11.6869 10.2539 11.676 10.0516 11.676 9.84375C11.676 9.52109 11.6678 9.43906 11.6185 9.30781C11.542 9.10273 11.3752 8.925 11.1701 8.8293C11.0252 8.76094 10.9732 8.75 10.7545 8.75H10.5002V4.84531C10.5002 0.514063 10.5138 0.83125 10.3224 0.533203C10.172 0.300781 9.95877 0.133985 9.69627 0.0464849C9.57322 0.00273418 9.28064 0 6.41502 0.00273418C3.95134 0.00273418 3.24314 0.0109377 3.15838 0.0382814ZM9.14939 1.2168C9.32713 1.29063 9.32439 1.24687 9.32439 3.20742C9.32439 4.39141 9.31345 4.9957 9.29431 5.05313C9.27791 5.09961 9.23142 5.15977 9.19314 5.18711C9.12205 5.23359 8.98259 5.23633 6.40681 5.23633H3.69158L3.60408 5.14609L3.51384 5.05859V3.2293C3.51384 1.23047 3.50838 1.30156 3.67517 1.21953C3.80095 1.15664 9.00173 1.15391 9.14939 1.2168Z" fill="#3A64F6"/>
</svg>
