<svg width="20" height="20" viewBox="0 0 20 20" fill="none" xmlns="http://www.w3.org/2000/svg">
<path d="M6.66667 15.8333C7.10869 15.8333 7.53262 15.6577 7.84518 15.3452C8.15774 15.0326 8.33333 14.6087 8.33333 14.1667C8.33333 13.7246 8.15774 13.3007 7.84518 12.9882C7.53262 12.6756 7.10869 12.5 6.66667 12.5C6.22464 12.5 5.80072 12.6756 5.48816 12.9882C5.17559 13.3007 5 13.7246 5 14.1667C5 14.6087 5.17559 15.0326 5.48816 15.3452C5.80072 15.6577 6.22464 15.8333 6.66667 15.8333ZM15 15.8333C15.442 15.8333 15.866 15.6577 16.1785 15.3452C16.4911 15.0326 16.6667 14.6087 16.6667 14.1667C16.6667 13.7246 16.4911 13.3007 16.1785 12.9882C15.866 12.6756 15.442 12.5 15 12.5C14.558 12.5 14.1341 12.6756 13.8215 12.9882C13.5089 13.3007 13.3333 13.7246 13.3333 14.1667C13.3333 14.6087 13.5089 15.0326 13.8215 15.3452C14.1341 15.6577 14.558 15.8333 15 15.8333Z" stroke="#404042" stroke-width="1.25" stroke-miterlimit="1.5" stroke-linecap="round" stroke-linejoin="round"/>
<path d="M8.37565 14.1667H12.5007V5.5C12.5007 5.36739 12.448 5.24021 12.3542 5.14645C12.2604 5.05268 12.1333 5 12.0007 5H0.833984M4.70898 14.1667H3.00065C2.93499 14.1667 2.86997 14.1537 2.80931 14.1286C2.74865 14.1035 2.69353 14.0667 2.6471 14.0202C2.60067 13.9738 2.56384 13.9187 2.53871 13.858C2.51358 13.7973 2.50065 13.7323 2.50065 13.6667V9.58333" stroke="#404042" stroke-width="1.25" stroke-linecap="round"/>
<path d="M1.66602 7.5H4.99935" stroke="#404042" stroke-width="1.25" stroke-linecap="round" stroke-linejoin="round"/>
<path d="M12.5 7.5H17.175C17.2716 7.50002 17.3662 7.52806 17.4473 7.58071C17.5283 7.63336 17.5924 7.70837 17.6317 7.79667L19.1233 11.1533C19.1518 11.2171 19.1665 11.286 19.1667 11.3558V13.6667C19.1667 13.7323 19.1537 13.7973 19.1286 13.858C19.1035 13.9187 19.0666 13.9738 19.0202 14.0202C18.9738 14.0666 18.9187 14.1035 18.858 14.1286C18.7973 14.1537 18.7323 14.1667 18.6667 14.1667H17.0833M12.5 14.1667H13.3333" stroke="#404042" stroke-width="1.25" stroke-linecap="round"/>
</svg>
