<svg xmlns="http://www.w3.org/2000/svg" xmlns:xlink="http://www.w3.org/1999/xlink" width="80" height="80" xmlns:v="https://vecta.io/nano"><defs><path id="A" d="M0 80L80 0H0z"/><path id="B" d="M0 80L80 0v80z"/></defs><g fill="none" fill-rule="evenodd"><g transform="translate(0 -5)"><mask id="C" fill="#fff"><use xlink:href="#A"/></mask><g fill="#e9d435" fill-rule="nonzero" mask="url(#C)"><path d="M32.7 58a2.5 2.5 0 0 1 2.46 2.05l.04.45v7a2.5 2.5 0 0 1-4.96.45l-.04-.45v-7a2.5 2.5 0 0 1 2.5-2.5zm17.485-6.294l.346.29 4.95 4.95a2.5 2.5 0 0 1 0 3.535c-.868.868-2.215.964-3.19.29l-.345-.29-4.95-4.95a2.5 2.5 0 0 1 3.189-3.825zm-32.18.29a2.5 2.5 0 0 1 .289 3.189l-.29.346-4.95 4.95a2.5 2.5 0 0 1-3.535 0c-.868-.868-.964-2.215-.29-3.19l.29-.345 4.95-4.95a2.5 2.5 0 0 1 3.535 0zM32.5 19C42.717 19 51 27.283 51 37.5S42.717 56 32.5 56 14 47.717 14 37.5 22.283 19 32.5 19zm0 5C25.044 24 19 30.044 19 37.5S25.044 51 32.5 51 46 44.956 46 37.5 39.956 24 32.5 24zm30 11.2a2.5 2.5 0 0 1 .45 4.96l-.45.04h-7a2.5 2.5 0 0 1-.45-4.96l.45-.04h7zm-53 0a2.5 2.5 0 0 1 .45 4.96l-.45.04h-7a2.5 2.5 0 0 1-.45-4.96l.45-.04h7zm45.981-20.681c.868.868.964 2.215.29 3.19l-.29.345-4.95 4.95a2.5 2.5 0 0 1-3.825-3.189l.29-.346 4.95-4.95a2.5 2.5 0 0 1 3.535 0zm-42.773-.29l.346.29 4.95 4.95a2.5 2.5 0 0 1-3.189 3.825l-.346-.29-4.95-4.95a2.5 2.5 0 0 1 0-3.535c.868-.868 2.215-.964 3.19-.29zM32.7 5a2.5 2.5 0 0 1 2.46 2.05l.04.45v7a2.5 2.5 0 0 1-4.96.45l-.04-.45v-7A2.5 2.5 0 0 1 32.7 5z"/></g></g><mask id="D" fill="#fff"><use xlink:href="#B"/></mask><g fill="#88cdff" fill-rule="nonzero" mask="url(#D)"><path d="M50.614 17.5a2.5 2.5 0 0 1 2.46 2.05l.04.45v7.142l5.054-5.076c.866-.87 2.213-.97 3.189-.298l.347.289a2.5 2.5 0 0 1 .297 3.188l-.288.347-8.6 8.642v10.068l8.597-4.903 3.44-12.409a2.5 2.5 0 0 1 2.633-1.822l.444.08c1.183.329 1.93 1.454 1.823 2.634l-.081.444-2.1 7.561 6.487-3.7a2.5 2.5 0 0 1 2.848 4.086l-.37.258-6.61 3.768 7.554 2.188a2.5 2.5 0 0 1 1.793 2.654l-.086.442a2.5 2.5 0 0 1-2.653 1.794l-.443-.087-12.224-3.535-8.703 4.963 8.702 4.963 12.225-3.535a2.5 2.5 0 0 1 1.809 4.639l-.42.164-7.56 2.184 6.615 3.772a2.5 2.5 0 0 1-2.067 4.531l-.41-.187-6.487-3.7 2.1 7.561a2.5 2.5 0 0 1-1.32 2.918l-.422.159a2.5 2.5 0 0 1-2.918-1.32l-.159-.421-3.44-12.409-8.597-4.903v10.067l8.6 8.643a2.5 2.5 0 0 1-3.2 3.816l-.345-.29-5.055-5.082.001 7.148a2.5 2.5 0 0 1-4.96.45l-.04-.45v-7.547l-5.449 5.481a2.5 2.5 0 0 1-3.188.297l-.347-.288c-.87-.866-.97-2.212-.298-3.189l.289-.346 8.992-9.04v-9.895l-8.99 5.128-3.44 12.409a2.5 2.5 0 0 1-4.9-.892l.082-.444 2.09-7.556-6.478 3.695a2.5 2.5 0 0 1-2.847-4.086l.37-.258 6.615-3.773-7.56-2.183c-1.179-.341-1.913-1.475-1.793-2.654l.086-.443c.341-1.179 1.475-1.913 2.654-1.793l.443.087 12.223 3.535 8.702-4.963-8.703-4.963-12.222 3.535a2.5 2.5 0 0 1-1.81-4.639l.42-.164L30.61 40.3 24 36.53A2.5 2.5 0 0 1 26.067 32l.41.187 6.48 3.696-2.092-7.557a2.5 2.5 0 0 1 1.319-2.918l.422-.16c1.183-.327 2.403.253 2.918 1.32l.159.422 3.44 12.409 8.99 5.128V34.63l-8.992-9.038a2.5 2.5 0 0 1 3.199-3.816l.345.29 5.448 5.475.001-7.541a2.5 2.5 0 0 1 2.5-2.5z"/></g></g></svg>