<svg width="14" height="14" viewBox="0 0 14 14" fill="none" xmlns="http://www.w3.org/2000/svg">
<path d="M10.5547 1.85669C10.3278 1.92779 10.1419 2.11099 10.079 2.32701C9.98873 2.62779 10.0461 2.81919 10.3169 3.12271C10.9676 3.85279 11.3477 4.48169 11.5965 5.24458C12.0586 6.66372 11.9575 8.14576 11.3094 9.45279C11.0442 9.98599 10.8063 10.3305 10.3169 10.8774C10.0461 11.1809 9.98873 11.3723 10.079 11.6731C10.1883 12.0477 10.6067 12.2528 10.995 12.127C11.1153 12.0887 11.1836 12.0368 11.3559 11.8618C12.3676 10.8282 13.0321 9.45826 13.2508 7.94341C13.3192 7.48951 13.3192 6.5106 13.2508 6.05669C13.0594 4.74419 12.57 3.60943 11.7633 2.59771C11.4297 2.18208 11.1645 1.93052 11.0086 1.87857C10.8665 1.82935 10.6723 1.82115 10.5547 1.85669Z" fill="#3A64F6"/>
<path d="M6.1332 2.10275C6.08672 2.11369 5.99375 2.15744 5.92812 2.19572C5.8625 2.234 5.21992 2.85744 4.49805 3.57931L3.18555 4.89455H2.21484C1.4957 4.89728 1.21953 4.90548 1.1457 4.93283C0.992578 4.98751 0.864063 5.09962 0.776562 5.25548L0.697266 5.40041V7.00001V8.59962L0.776562 8.74455C0.864063 8.90041 0.992578 9.01251 1.1457 9.0672C1.21953 9.09455 1.4957 9.10275 2.21484 9.10548H3.18555L4.52539 10.4453C5.99648 11.9137 5.98281 11.9027 6.30273 11.9055C6.58164 11.9082 6.83594 11.7469 6.94805 11.4981C6.99727 11.3942 7 11.1918 7 7.00001C7 2.80822 6.99727 2.60587 6.94805 2.50197C6.8168 2.20939 6.43945 2.02619 6.1332 2.10275Z" fill="#3A64F6"/>
<path d="M8.61875 3.83083C8.29609 3.89373 8.06641 4.18357 8.06641 4.52537C8.06641 4.73865 8.1293 4.8699 8.34531 5.11873C8.58047 5.38943 8.67891 5.53708 8.81836 5.8324C9.01523 6.25076 9.06172 6.47224 9.06172 6.99998C9.06172 7.52771 9.01523 7.74919 8.81836 8.16755C8.67891 8.46287 8.58047 8.61052 8.34531 8.88123C8.1293 9.13005 8.06641 9.2613 8.06641 9.47458C8.06641 9.67966 8.15391 9.87654 8.29883 10.0051C8.44648 10.1336 8.57227 10.1801 8.77734 10.1801C9.01523 10.1801 9.17109 10.1035 9.3707 9.88748C9.94219 9.27771 10.325 8.49568 10.459 7.6699C10.5109 7.34998 10.5109 6.64998 10.459 6.33005C10.325 5.50427 9.94219 4.72224 9.3707 4.11248C9.14102 3.86365 8.90039 3.77341 8.61875 3.83083Z" fill="#3A64F6"/>
</svg>
