<svg width="16" height="16" viewBox="0 0 16 16" fill="none" xmlns="http://www.w3.org/2000/svg">
<path d="M9.15315 2.34001L10.3265 4.68668C10.4865 5.01334 10.9132 5.32668 11.2732 5.38668L13.3998 5.74001C14.7598 5.96668 15.0798 6.95334 14.0998 7.92668L12.4465 9.58001C12.1665 9.86001 12.0132 10.4 12.0998 10.7867L12.5732 12.8333C12.9465 14.4533 12.0865 15.08 10.6532 14.2333L8.65982 13.0533C8.29982 12.84 7.70648 12.84 7.33982 13.0533L5.34648 14.2333C3.91982 15.08 3.05315 14.4467 3.42648 12.8333L3.89982 10.7867C3.98648 10.4 3.83315 9.86001 3.55315 9.58001L1.89982 7.92668C0.926484 6.95334 1.23982 5.96668 2.59982 5.74001L4.72648 5.38668C5.07982 5.32668 5.50648 5.01334 5.66648 4.68668L6.83982 2.34001C7.47982 1.06668 8.51982 1.06668 9.15315 2.34001Z" fill="#FFBA35"/>
</svg>
