<svg width="59" height="48" viewBox="0 0 59 48" fill="none" xmlns="http://www.w3.org/2000/svg">
<circle cx="24" cy="24" r="24" fill="#E5E7F0"/>
<rect x="11" width="48" height="48" rx="24" fill="#3A64F6"/>
<path d="M33.6456 13.6542C34.3931 13.015 35.6173 13.015 36.3756 13.6542L38.0873 15.1276C38.4123 15.4093 39.0189 15.6368 39.4523 15.6368H41.294C42.4423 15.6368 43.3848 16.5792 43.3848 17.7275V19.5693C43.3848 19.9918 43.6123 20.6093 43.8939 20.9343L45.3673 22.6459C46.0065 23.3934 46.0065 24.6176 45.3673 25.3759L43.8939 27.0875C43.6123 27.4125 43.3848 28.0192 43.3848 28.4525V30.2943C43.3848 31.4426 42.4423 32.3851 41.294 32.3851H39.4523C39.0298 32.3851 38.4123 32.6125 38.0873 32.8942L36.3756 34.3675C35.6281 35.0067 34.404 35.0067 33.6456 34.3675L31.934 32.8942C31.609 32.6125 31.0023 32.3851 30.569 32.3851H28.6948C27.5464 32.3851 26.604 31.4426 26.604 30.2943V28.4417C26.604 28.0192 26.3765 27.4125 26.1056 27.0875L24.6431 25.3651C24.0148 24.6176 24.0148 23.4042 24.6431 22.6567L26.1056 20.9343C26.3765 20.6093 26.604 20.0026 26.604 19.5801V17.7275C26.604 16.5792 27.5464 15.6368 28.6948 15.6368H30.569C30.9915 15.6368 31.609 15.4093 31.934 15.1276L33.6456 13.6542Z" stroke="white" stroke-width="1.26286" stroke-linecap="round" stroke-linejoin="round"/>
<path d="M32.7131 27.0551L34.2839 28.2685C34.4897 28.4743 34.9448 28.5718 35.2481 28.5718H37.1656C37.7722 28.5718 38.4331 28.1169 38.5847 27.5102L39.7981 23.8051C40.0472 23.101 39.5923 22.4835 38.8339 22.4835H36.8081C36.5048 22.4835 36.2556 22.2344 36.2989 21.8769L36.5481 20.2519C36.6456 19.7969 36.3423 19.2877 35.8873 19.136C35.4864 18.9844 34.9773 19.1902 34.7714 19.4935L32.6914 22.581" stroke="white" stroke-width="1.26286" stroke-miterlimit="10"/>
<path d="M30.125 27.0547V22.0931C30.125 21.3781 30.4283 21.1289 31.1433 21.1289H31.6525C32.3567 21.1289 32.6708 21.3781 32.6708 22.0931L32.5 24.4998L32.6708 27.0547C32.6708 27.7589 32.3675 28.0189 31.6525 28.0189H31.1433C30.4283 28.0189 30.125 27.7697 30.125 27.0547Z" stroke="white" stroke-width="1.26286" stroke-linecap="round" stroke-linejoin="round"/>
</svg>
