<svg width="16" height="16" viewBox="0 0 16 16" fill="none" xmlns="http://www.w3.org/2000/svg">
<path d="M7.99981 12.8357L4.19565 15.1273C4.02759 15.2343 3.8519 15.2801 3.66856 15.2648C3.48523 15.2496 3.32481 15.1885 3.18731 15.0815C3.04981 14.9746 2.94287 14.841 2.86648 14.6809C2.79009 14.5208 2.77481 14.3411 2.82065 14.1419L3.82898 9.81068L0.46023 6.90026C0.307452 6.76276 0.212119 6.60601 0.17423 6.43001C0.136341 6.25401 0.147647 6.08229 0.208147 5.91484C0.268647 5.7474 0.360313 5.6099 0.483146 5.50234C0.60598 5.39479 0.774035 5.32604 0.987313 5.29609L5.43315 4.90651L7.1519 0.827344C7.22829 0.644011 7.34684 0.50651 7.50756 0.414844C7.66829 0.323177 7.83237 0.277344 7.99981 0.277344C8.16726 0.277344 8.33134 0.323177 8.49206 0.414844C8.65279 0.50651 8.77134 0.644011 8.84773 0.827344L10.5665 4.90651L15.0123 5.29609C15.2262 5.32665 15.3943 5.3954 15.5165 5.50234C15.6387 5.60929 15.7304 5.74679 15.7915 5.91484C15.8526 6.0829 15.8642 6.25493 15.8263 6.43093C15.7884 6.60693 15.6928 6.76337 15.5394 6.90026L12.1706 9.81068L13.179 14.1419C13.2248 14.3405 13.2095 14.5202 13.1331 14.6809C13.0568 14.8416 12.9498 14.9752 12.8123 15.0815C12.6748 15.1878 12.5144 15.249 12.3311 15.2648C12.1477 15.2807 11.972 15.2349 11.804 15.1273L7.99981 12.8357Z" fill="#EBC40F"/>
</svg>
