<svg width="14" height="14" viewBox="0 0 14 14" fill="none" xmlns="http://www.w3.org/2000/svg">
<g clip-path="url(#clip0_2173_1156)">
<path d="M4.9875 0.0710936C4.64297 0.303515 3.42344 1.48203 2.93672 2.05078C1.4875 3.74336 0.615234 5.31016 0.221484 6.92344C0.0410156 7.65625 0.0136719 7.89687 0.0136719 8.72266C0.0136719 9.40352 0.0191406 9.46641 0.0875 9.78906C0.538672 11.8945 2.10547 13.4586 4.21094 13.9125C4.53086 13.9809 4.59648 13.9863 5.25 13.9863C5.90352 13.9863 5.96914 13.9809 6.28906 13.9125C7.3582 13.6801 8.2168 13.218 8.97148 12.4688C9.31055 12.1352 9.46094 11.9383 9.46094 11.8398C9.46094 11.7441 9.42812 11.7195 9.24219 11.6758C8.85938 11.5883 8.23867 11.3285 7.89687 11.1125C6.82773 10.4398 6.07305 9.34336 5.79141 8.0582C5.73672 7.81211 5.73125 7.69727 5.72852 7.10938C5.72852 6.41211 5.73945 6.30547 5.8707 5.72852C6.1168 4.63477 6.68281 3.45898 7.44297 2.45547C7.54961 2.31328 7.60156 2.22031 7.60156 2.16836C7.60156 2.10547 7.53594 2.01523 7.29258 1.74727C6.73203 1.13203 5.70391 0.172266 5.46055 0.0355473C5.42773 0.0164061 5.33203 0.00273418 5.24727 0C5.12422 0 5.07227 0.0136719 4.9875 0.0710936Z" fill="#3A64F6"/>
<path d="M10.0762 0.907763C9.85741 1.03081 8.98241 1.8894 8.56132 2.39253C7.52772 3.63667 6.92343 4.80425 6.65819 6.07026C6.55975 6.54058 6.53241 7.34722 6.6035 7.76831C6.86874 9.36792 8.09374 10.6257 9.6496 10.8937C9.98593 10.9511 10.5766 10.9511 10.9129 10.8937C11.7332 10.7515 12.518 10.3085 13.0621 9.67964C13.5297 9.13823 13.8387 8.48745 13.9562 7.79565C14.0137 7.45933 14.0137 6.75933 13.9562 6.37378C13.732 4.83706 12.8598 3.24292 11.4433 1.78003C11.0906 1.41362 10.6449 1.0062 10.5137 0.92417C10.4207 0.869483 10.1637 0.858545 10.0762 0.907763Z" fill="#3A64F6"/>
</g>
<defs>
<clipPath id="clip0_2173_1156">
<rect width="14" height="14" fill="white"/>
</clipPath>
</defs>
</svg>
