<svg xmlns="http://www.w3.org/2000/svg" xmlns:xlink="http://www.w3.org/1999/xlink" width="110" height="36" xmlns:v="https://vecta.io/nano"><defs><path id="A" d="M0 0H97.009V18.591H0z"/></defs><g transform="translate(5.66 12.098)" fill="none" fill-rule="evenodd"><mask id="B" fill="#fff"><use xlink:href="#A"/></mask><g mask="url(#B)"><g fill="#f79c34"><path d="M38.28 14.543c-3.586 2.643-8.783 4.048-13.259 4.048-6.272 0-11.92-2.316-16.195-6.172-.336-.303-.037-.716.367-.482 4.611 2.681 10.315 4.296 16.205 4.296a32.27 32.27 0 0 0 12.36-2.527c.607-.257 1.115.399.521.837zm1.491-1.702c-.458-.586-3.03-.278-4.186-.14-.35.043-.405-.263-.09-.484 2.053-1.44 5.416-1.025 5.806-.542s-.103 3.854-2.026 5.461c-.296.247-.577.115-.446-.21.433-1.08 1.401-3.498.942-4.085z"/></g><path fill="#333e47" d="M35.666 2.045v-1.4c.001-.212.162-.354.355-.353L42.298.29c.201 0 .363.145.363.353v1.2c-.003.201-.172.464-.473.88l-3.252 4.638c1.207-.028 2.484.153 3.58.768.248.14.314.345.334.547v1.492c0 .206-.226.444-.463.32-1.932-1.01-4.496-1.121-6.632.013-.219.116-.447-.119-.447-.325V8.758c0-.227.005-.615.234-.961l3.767-5.4h-3.28c-.2 0-.362-.143-.363-.352zm-22.898 8.738h-1.91c-.181-.011-.326-.147-.341-.322l.001-9.792c0-.195.165-.352.37-.352h1.778c.185.01.335.15.346.329v1.278h.037C13.512.687 14.385.11 15.562.11c1.194 0 1.943.577 2.478 1.814C18.503.687 19.555.11 20.678.11c.802 0 1.676.33 2.21 1.072.607.825.482 2.02.482 3.07l-.002 6.18c0 .194-.164.351-.368.351h-1.907c-.192-.012-.343-.163-.343-.351V5.24c0-.412.035-1.442-.054-1.833-.143-.66-.57-.846-1.123-.846-.464 0-.945.31-1.141.803s-.178 1.32-.178 1.876v5.19a.36.36 0 0 1-.368.352h-1.908c-.192-.012-.343-.163-.343-.351l-.002-5.191c0-1.092.178-2.698-1.176-2.698-1.373 0-1.32 1.565-1.32 2.698v5.19a.36.36 0 0 1-.369.352zM48.082 2.11c-1.408 0-1.497 1.915-1.497 3.11s-.018 3.75 1.48 3.75c1.48 0 1.55-2.06 1.55-3.317 0-.824-.036-1.813-.285-2.596-.214-.68-.642-.948-1.248-.948zm-.017-2c2.834 0 4.367 2.433 4.367 5.523 0 2.987-1.694 5.357-4.367 5.357-2.782 0-4.297-2.432-4.297-5.46 0-3.05 1.533-5.42 4.297-5.42zm8.043 10.673h-1.903c-.191-.012-.343-.163-.343-.351L53.86.637c.016-.18.175-.32.367-.32h1.771c.167.009.305.122.34.274v1.497h.036C56.908.748 57.656.11 58.975.11c.856 0 1.694.31 2.228 1.154.5.783.5 2.101.5 3.05v6.161c-.021.174-.178.308-.367.308h-1.914c-.177-.01-.32-.14-.34-.308V5.16c0-1.072.125-2.638-1.194-2.638-.464 0-.892.31-1.105.783-.268.598-.304 1.195-.304 1.855v5.272c-.003.195-.168.352-.371.352zm-23.521-.023c-.126.112-.308.12-.45.044-.635-.527-.749-.77-1.096-1.272-1.048 1.067-1.79 1.387-3.148 1.387-1.608 0-2.859-.992-2.859-2.974 0-1.548.84-2.601 2.037-3.117 1.036-.455 2.483-.537 3.591-.661v-.248c0-.455.036-.991-.232-1.384-.233-.351-.679-.495-1.072-.495-.729 0-1.376.372-1.535 1.145-.033.172-.159.342-.331.351l-1.852-.2c-.156-.036-.33-.161-.285-.4.42-2.211 2.398-2.9 4.195-2.92h.142c.92.012 2.095.264 2.81.95.93.867.84 2.023.84 3.283v2.972c0 .895.371 1.287.72 1.768.123.174.15.38-.006.507l-1.464 1.268-.005-.005zm-1.925-4.652c0 .743.018 1.363-.357 2.024-.304.536-.787.866-1.322.866-.732 0-1.161-.557-1.161-1.383 0-1.625 1.459-1.92 2.84-1.92v.413zM7.553 10.76c-.127.112-.309.12-.451.044-.635-.527-.749-.77-1.095-1.272-1.049 1.067-1.79 1.387-3.149 1.387C1.251 10.919 0 9.927 0 7.945c0-1.548.84-2.601 2.037-3.117 1.036-.455 2.483-.537 3.59-.661v-.248c0-.455.036-.991-.232-1.384-.232-.351-.68-.495-1.071-.495-.73 0-1.377.372-1.535 1.145-.033.172-.16.342-.332.351l-1.851-.2c-.157-.036-.33-.161-.286-.4C.74.726 2.718.037 4.515.017h.142c.92.012 2.095.264 2.81.95.93.867.84 2.023.84 3.283v2.972c0 .895.372 1.287.72 1.768.122.174.15.38-.005.507l-1.465 1.268-.004-.005zM5.627 6.107c0 .743.018 1.363-.357 2.024-.303.536-.786.866-1.322.866-.732 0-1.161-.557-1.161-1.383 0-1.625 1.46-1.92 2.84-1.92v.413zm82.181 8.189v-.72c0-.204.1-.345.314-.333.4.057.964.114 1.364.031.524-.109.899-.48 1.121-.987l.65-1.67L87.286.786c-.067-.167-.087-.477.247-.477h1.388c.265 0 .373.168.432.333l2.88 7.986 2.75-7.986c.056-.164.169-.333.432-.333h1.31c.33 0 .312.31.246.477L93.03 10.924c-.51 1.35-1.19 3.5-2.72 3.873-.767.2-1.734.128-2.303-.11-.143-.072-.198-.264-.198-.391zm-1.853-4.112c0 .183-.15.333-.334.333h-.98c-.21 0-.355-.153-.382-.333l-.099-.666c-.45.38-1.002.715-1.601.948-1.152.447-2.48.521-3.605-.17-.814-.499-1.246-1.474-1.246-2.48 0-.78.24-1.551.773-2.112.71-.766 1.74-1.142 2.984-1.142.751 0 1.826.089 2.608.344v-1.34c0-1.363-.574-1.952-2.088-1.952-1.158 0-2.043.174-3.275.557-.198.006-.313-.143-.313-.326V1.08c0-.183.157-.36.326-.414.88-.383 2.127-.622 3.452-.666 1.727 0 3.78.39 3.78 3.043v7.141zm-1.882-1.956V6.206c-.657-.18-1.745-.255-2.166-.255-.665 0-1.393.157-1.773.566-.284.3-.413.73-.413 1.147 0 .538.186 1.077.622 1.344.505.343 1.29.302 2.026.093.709-.201 1.374-.557 1.704-.873zM71.515 1.644c2.173 0 2.765 1.707 2.765 3.661.012 1.318-.23 2.493-.913 3.165-.511.504-1.082.641-1.942.641-.765 0-1.771-.399-2.523-.954V2.57c.783-.6 1.781-.925 2.613-.925zM68.57 14.647h-1.312c-.184 0-.334-.15-.334-.333V.659c0-.182.15-.332.334-.332h1.004a.38.38 0 0 1 .383.332l.105.716C69.69.54 70.9.006 72.054.006c3.23 0 4.293 2.66 4.293 5.425 0 2.959-1.625 5.336-4.373 5.336-1.158 0-2.24-.427-3.072-1.168v4.715c0 .183-.15.333-.333.333z"/></g></g></svg>